<?xml version="1.0" standalone="no"?>
<!DOCTYPE svg PUBLIC "-//W3C//DTD SVG 20010904//EN"
 "http://www.w3.org/TR/2001/REC-SVG-20010904/DTD/svg10.dtd">
<svg version="1.0" xmlns="http://www.w3.org/2000/svg"
 width="1500.000000pt" height="1500.000000pt" viewBox="0 0 1500.000000 1500.000000"
 preserveAspectRatio="xMidYMid meet">

<g transform="translate(0.000000,1500.000000) scale(0.100000,-0.100000)"
fill="#000000" stroke="none">
<path d="M7155 14029 c-1174 -63 -2288 -429 -3265 -1074 -1289 -850 -2247
-2148 -2676 -3625 -408 -1402 -336 -2909 203 -4260 690 -1728 2096 -3091 3845
-3726 1438 -522 3028 -522 4466 0 1076 391 2042 1068 2779 1946 790 941 1298
2083 1467 3295 46 333 59 533 59 910 0 377 -13 577 -59 910 -240 1723 -1157
3275 -2559 4328 -1220 915 -2738 1378 -4260 1296z m925 -5084 l0 -935 860 0
860 0 0 -525 0 -525 -860 0 -860 0 -2 -937 -3 -938 -585 0 -585 0 -3 938 -2
937 -860 0 -860 0 0 525 0 525 860 0 860 0 0 935 0 935 590 0 590 0 0 -935z"/>
</g>
</svg>
